HIERARCHY
ROOT joint_Root
{
	OFFSET 0.0 0.0 0.0
	CHANNELS 6 Xposition Yposition Zposition Zrotation Xrotation Yrotation 
	JOINT Hips
	{
		OFFSET 4.5925 91.4895 -427.239
		CHANNELS 6 Xposition Yposition Zposition Zrotation Xrotation Yrotation 
		JOINT Spine
		{
			OFFSET 15.7357 0.0 0.0
			CHANNELS 6 Xposition Yposition Zposition Zrotation Xrotation Yrotation 
			JOINT Chest
			{
				OFFSET 8.98455 -0.406207 0.0
				CHANNELS 6 Xposition Yposition Zposition Zrotation Xrotation Yrotation 
				JOINT Neck
				{
					OFFSET 16.3773 0.0 0.0
					CHANNELS 6 Xposition Yposition Zposition Zrotation Xrotation Yrotation 
					JOINT Head
					{
						OFFSET 6.45672 0.0 0.0
						CHANNELS 6 Xposition Yposition Zposition Zrotation Xrotation Yrotation 
						End Site
						{
							OFFSET 0.0 0.0 0.0
						}
					}
				}
				JOINT Shoulder_L
				{
					OFFSET 12.9942 -0.242716 4.98039
					CHANNELS 6 Xposition Yposition Zposition Zrotation Xrotation Yrotation 
					JOINT UpperArm_L
					{
						OFFSET 5.34809 0.0 0.0
						CHANNELS 6 Xposition Yposition Zposition Zrotation Xrotation Yrotation 
						JOINT LowerArm_L
						{
							OFFSET 24.3286 1.87007e-05 0.0
							CHANNELS 6 Xposition Yposition Zposition Zrotation Xrotation Yrotation 
							JOINT Hand_L
							{
								OFFSET 22.2916 0.0 0.0
								CHANNELS 6 Xposition Yposition Zposition Zrotation Xrotation Yrotation 
								End Site
								{
									OFFSET 0.0 0.0 0.0
								}
							}
						}
					}
				}
				JOINT Shoulder_R
				{
					OFFSET 12.9945 -0.242716 -4.98039
					CHANNELS 6 Xposition Yposition Zposition Zrotation Xrotation Yrotation 
					JOINT UpperArm_R
					{
						OFFSET -5.34813 0.0 0.0
						CHANNELS 6 Xposition Yposition Zposition Zrotation Xrotation Yrotation 
						JOINT LowerArm_R
						{
							OFFSET -24.3289 0.000322201 0.0
							CHANNELS 6 Xposition Yposition Zposition Zrotation Xrotation Yrotation 
							JOINT Hand_R
							{
								OFFSET -22.2915 -0.000108084 0.0
								CHANNELS 6 Xposition Yposition Zposition Zrotation Xrotation Yrotation 
								End Site
								{
									OFFSET 0.0 0.0 0.0
								}
							}
						}
					}
				}
			}
		}
		JOINT UpperLeg_L
		{
			OFFSET -2.19248 -6.46944 0.0
			CHANNELS 6 Xposition Yposition Zposition Zrotation Xrotation Yrotation 
			JOINT LowerLeg_L
			{
				OFFSET 39.0811 0.0 -1.23785e-05
				CHANNELS 6 Xposition Yposition Zposition Zrotation Xrotation Yrotation 
				JOINT Foot_L
				{
					OFFSET 40.9854 0.0 -1.26872e-05
					CHANNELS 6 Xposition Yposition Zposition Zrotation Xrotation Yrotation 
					JOINT Toes_L
					{
						OFFSET 11.7543 0.0 0.0
						CHANNELS 6 Xposition Yposition Zposition Zrotation Xrotation Yrotation 
						End Site
						{
							OFFSET 0.0 0.0 0.0
						}
					}
				}
			}
		}
		JOINT UpperLeg_R
		{
			OFFSET -2.19251 6.46944 0.0
			CHANNELS 6 Xposition Yposition Zposition Zrotation Xrotation Yrotation 
			JOINT LowerLeg_R
			{
				OFFSET -39.0811 -0.00228153 -0.0401928
				CHANNELS 6 Xposition Yposition Zposition Zrotation Xrotation Yrotation 
				JOINT Foot_R
				{
					OFFSET -40.9854 0.0 0.0
					CHANNELS 6 Xposition Yposition Zposition Zrotation Xrotation Yrotation 
					JOINT Toes_R
					{
						OFFSET -11.7543 0.0 0.0
						CHANNELS 6 Xposition Yposition Zposition Zrotation Xrotation Yrotation 
						End Site
						{
							OFFSET 0.0 0.0 0.0
						}
					}
				}
			}
		}
	}
}
MOTION
Frames:	5
Frame Time:	0.0333333
0.000000 0.000000 0.000000 0.000000 0.000000 -0.000000 -2.395430 89.686700 -3.270580 88.348800 -1.680330 14.612800 15.735700 0.000005 -0.000001 88.202200 77.509500 -88.087900 8.984550 -0.406207 -0.000000 17.204500 -0.761113 0.344155 16.377300 -0.000001 -0.000001 3.633090 -4.258480 2.734240 6.456720 -0.000001 -0.000000 -6.586500 -3.616610 2.951650 12.994200 -0.242716 4.980390 -91.114600 5.682690 -78.883800 5.348090 -0.000007 -0.000001 -54.605300 41.053700 -29.756700 24.328600 0.000019 0.000005 7.286980 20.117300 -20.394100 22.291600 -0.000001 0.000005 7.007490 5.280070 0.624388 12.994500 -0.242716 -4.980390 89.210200 10.780600 -85.784700 -5.348130 -0.000001 -0.000004 -60.574600 30.882400 -20.102600 -24.328900 0.000322 -0.000009 2.719910 6.654700 -22.298900 -22.291500 -0.000108 -0.000004 14.764500 5.386060 -2.489890 -2.192480 -6.469440 -0.000000 -171.994000 -11.603200 -1.477450 39.081100 -0.000007 -0.000012 -0.239065 0.310594 37.586000 40.985400 -0.000006 -0.000013 -0.690760 4.063810 -70.985900 11.754300 -0.000000 0.000003 -0.000174 -0.001651 -16.640100 -2.192510 6.469440 -0.000001 175.127000 20.781600 -179.162000 -39.081100 -0.002282 -0.040193 -0.250798 0.349968 35.981100 -40.985400 0.000008 0.000006 4.477790 11.046500 -71.800900 -11.754300 -0.000006 -0.000006 -0.003564 -0.046829 -18.477800
0.000000 0.000000 0.000000 0.000000 0.000000 -0.000000 -2.386850 89.682400 -3.284490 88.358400 -1.711380 14.625000 15.735700 0.000005 -0.000001 88.197200 77.511600 -88.100000 8.984550 -0.406207 -0.000000 17.200200 -0.764519 0.310453 16.377300 -0.000001 -0.000001 3.604750 -4.226430 2.688080 6.456720 -0.000001 -0.000000 -6.588380 -3.606270 2.990750 12.994200 -0.242716 4.980390 -91.113500 5.675120 -78.879800 5.348090 -0.000007 -0.000001 -54.644600 41.050500 -29.719700 24.328600 0.000019 0.000005 7.284800 20.046100 -20.452200 22.291600 -0.000001 0.000005 7.024930 5.280950 0.600258 12.994500 -0.242716 -4.980390 89.192100 10.841900 -85.712500 -5.348130 -0.000001 -0.000004 -60.984000 29.560400 -19.725000 -24.328900 0.000322 -0.000009 2.845650 6.593680 -23.414800 -22.291500 -0.000108 -0.000004 14.997500 5.387750 -2.543490 -2.192480 -6.469440 -0.000000 -171.992000 -11.624800 -1.480190 39.081100 -0.000007 -0.000012 -0.243219 0.315816 37.601400 40.985400 -0.000006 -0.000013 -0.695384 4.052170 -70.982100 11.754300 -0.000000 0.000003 -0.000190 -0.001777 -16.644700 -2.192510 6.469440 -0.000001 175.128000 20.768300 -179.179000 -39.081100 -0.002282 -0.040193 -0.243201 0.339148 36.009700 -40.985400 0.000008 0.000006 4.490620 11.058500 -71.805800 -11.754300 -0.000006 -0.000006 -0.003608 -0.047298 -18.496900
0.000000 0.000000 0.000000 0.000000 0.000000 -0.000000 -2.376000 89.680100 -3.308330 88.355400 -1.780220 14.651800 15.735700 0.000005 -0.000001 88.227100 77.497800 -88.142200 8.984550 -0.406207 -0.000000 17.228100 -0.753506 0.284229 16.377300 -0.000001 -0.000001 3.564200 -4.230560 2.656600 6.456720 -0.000001 -0.000000 -6.603490 -3.597960 2.998260 12.994200 -0.242716 4.980390 -91.112400 5.670860 -78.883100 5.348090 -0.000007 -0.000001 -54.672000 41.027600 -29.686800 24.328600 0.000019 0.000005 7.297420 20.010800 -20.516700 22.291600 -0.000001 0.000005 7.032310 5.279950 0.627676 12.994500 -0.242716 -4.980390 89.169900 10.892400 -85.615100 -5.348130 -0.000001 -0.000004 -61.332800 28.034200 -19.460500 -24.328900 0.000322 -0.000009 2.670450 5.801060 -24.780200 -22.291500 -0.000108 -0.000004 15.462500 5.389330 -2.593970 -2.192480 -6.469440 -0.000000 -171.993000 -11.676900 -1.459370 39.081100 -0.000007 -0.000012 -0.236440 0.306812 37.619500 40.985400 -0.000006 -0.000013 -0.686753 4.015180 -70.989400 11.754300 -0.000000 0.000003 -0.000182 -0.001711 -16.642300 -2.192510 6.469440 -0.000001 175.133000 20.696000 -179.185000 -39.081100 -0.002282 -0.040193 -0.246583 0.343607 36.025000 -40.985400 0.000008 0.000006 4.481440 11.062500 -71.789900 -11.754300 -0.000006 -0.000006 -0.003585 -0.047050 -18.486800
0.000000 0.000000 0.000000 0.000000 0.000000 -0.000000 -2.366410 89.682100 -3.324450 88.336600 -1.837770 14.664500 15.735700 0.000005 -0.000001 88.192300 77.488600 -88.110000 8.984550 -0.406207 -0.000000 17.246000 -0.769149 0.281669 16.377300 -0.000001 -0.000001 3.539160 -4.227610 2.643670 6.456720 -0.000001 -0.000000 -6.651380 -3.550710 2.946410 12.994200 -0.242716 4.980390 -91.126800 5.721630 -78.839600 5.348090 -0.000007 -0.000001 -54.595600 41.049700 -29.689000 24.328600 0.000019 0.000005 7.276260 19.898800 -20.562800 22.291600 -0.000001 0.000005 6.997280 5.278900 0.656301 12.994500 -0.242716 -4.980390 89.150300 10.883800 -85.508600 -5.348130 -0.000001 -0.000004 -61.684600 26.358000 -19.360800 -24.328900 0.000322 -0.000009 2.480770 5.035140 -26.282300 -22.291500 -0.000108 -0.000004 15.578300 5.396310 -2.817970 -2.192480 -6.469440 -0.000000 -171.963000 -11.687800 -1.455230 39.081100 -0.000007 -0.000012 -0.244809 0.317659 37.620700 40.985400 -0.000006 -0.000013 -0.694761 3.993810 -70.977100 11.754300 -0.000000 0.000003 -0.000183 -0.001718 -16.642500 -2.192510 6.469440 -0.000001 175.163000 20.672600 -179.184000 -39.081100 -0.002282 -0.040193 -0.243699 0.339813 36.011200 -40.985400 0.000008 0.000006 4.479540 11.052800 -71.765900 -11.754300 -0.000006 -0.000006 -0.003746 -0.048777 -18.557100
0.000000 0.000000 0.000000 0.000000 0.000000 -0.000000 -2.348830 89.680800 -3.351150 88.338000 -1.882160 14.686000 15.735700 0.000005 -0.000001 88.109000 77.468500 -88.043000 8.984550 -0.406207 -0.000000 17.285000 -0.807467 0.254974 16.377300 -0.000001 -0.000001 3.503550 -4.247150 2.626260 6.456720 -0.000001 -0.000000 -6.674680 -3.504080 2.942070 12.994200 -0.242716 4.980390 -91.127600 5.735270 -78.857700 5.348090 -0.000007 -0.000001 -54.633300 40.948100 -29.633500 24.328600 0.000019 0.000005 7.356390 20.156900 -20.538600 22.291600 -0.000001 0.000005 7.005500 5.277880 0.684208 12.994500 -0.242716 -4.980390 89.126900 10.904800 -85.394400 -5.348130 -0.000001 -0.000004 -61.578100 25.142500 -19.541600 -24.328900 0.000322 -0.000009 2.420170 4.532580 -28.149700 -22.291500 -0.000108 -0.000004 15.898200 5.396970 -2.839220 -2.192480 -6.469440 -0.000000 -171.974000 -11.708500 -1.454280 39.081100 -0.000007 -0.000012 -0.240039 0.311316 37.634300 40.985400 -0.000006 -0.000013 -0.683307 3.975180 -70.969800 11.754300 -0.000000 0.000003 -0.000180 -0.001693 -16.641600 -2.192510 6.469440 -0.000001 175.166000 20.600800 -179.201000 -39.081100 -0.002282 -0.040193 -0.242851 0.338461 36.026200 -40.985400 0.000008 0.000006 4.472650 11.068500 -71.746200 -11.754300 -0.000006 -0.000006 -0.003510 -0.046247 -18.454100
